<?xml version="1.0" standalone="no"?>
<svg xmlns:xlink="http://www.w3.org/1999/xlink" id="wave" style="transform:rotate(0deg); transition: 0.3s" viewBox="0 0 1440 490" version="1.1" xmlns="http://www.w3.org/2000/svg"><defs><linearGradient id="sw-gradient-0" x1="0" x2="0" y1="1" y2="0"><stop stop-color="rgba(200.775, 80.599, 42.003, 1)" offset="0%"/><stop stop-color="rgba(255, 179, 11, 1)" offset="100%"/></linearGradient></defs><path style="transform:translate(0, 0px); opacity:1" fill="url(#sw-gradient-0)" d="M0,392L18.5,351.2C36.9,310,74,229,111,220.5C147.7,212,185,278,222,302.2C258.5,327,295,310,332,277.7C369.2,245,406,196,443,212.3C480,229,517,310,554,318.5C590.8,327,628,261,665,261.3C701.5,261,738,327,775,302.2C812.3,278,849,163,886,147C923.1,131,960,212,997,204.2C1033.8,196,1071,98,1108,106.2C1144.6,114,1182,229,1218,228.7C1255.4,229,1292,114,1329,106.2C1366.2,98,1403,196,1440,261.3C1476.9,327,1514,359,1551,367.5C1587.7,376,1625,359,1662,359.3C1698.5,359,1735,376,1772,375.7C1809.2,376,1846,359,1883,343C1920,327,1957,310,1994,285.8C2030.8,261,2068,229,2105,212.3C2141.5,196,2178,196,2215,187.8C2252.3,180,2289,163,2326,171.5C2363.1,180,2400,212,2437,196C2473.8,180,2511,114,2548,130.7C2584.6,147,2622,245,2640,294L2658.5,343L2658.5,490L2640,490C2621.5,490,2585,490,2548,490C2510.8,490,2474,490,2437,490C2400,490,2363,490,2326,490C2289.2,490,2252,490,2215,490C2178.5,490,2142,490,2105,490C2067.7,490,2031,490,1994,490C1956.9,490,1920,490,1883,490C1846.2,490,1809,490,1772,490C1735.4,490,1698,490,1662,490C1624.6,490,1588,490,1551,490C1513.8,490,1477,490,1440,490C1403.1,490,1366,490,1329,490C1292.3,490,1255,490,1218,490C1181.5,490,1145,490,1108,490C1070.8,490,1034,490,997,490C960,490,923,490,886,490C849.2,490,812,490,775,490C738.5,490,702,490,665,490C627.7,490,591,490,554,490C516.9,490,480,490,443,490C406.2,490,369,490,332,490C295.4,490,258,490,222,490C184.6,490,148,490,111,490C73.8,490,37,490,18,490L0,490Z"/><defs><linearGradient id="sw-gradient-1" x1="0" x2="0" y1="1" y2="0"><stop stop-color="rgba(243, 106, 62, 1)" offset="0%"/><stop stop-color="rgba(255, 179, 11, 1)" offset="100%"/></linearGradient></defs><path style="transform:translate(0, 50px); opacity:0.9" fill="url(#sw-gradient-1)" d="M0,294L18.5,318.5C36.9,343,74,392,111,408.3C147.7,425,185,408,222,334.8C258.5,261,295,131,332,130.7C369.2,131,406,261,443,310.3C480,359,517,327,554,269.5C590.8,212,628,131,665,89.8C701.5,49,738,49,775,73.5C812.3,98,849,147,886,187.8C923.1,229,960,261,997,285.8C1033.8,310,1071,327,1108,326.7C1144.6,327,1182,310,1218,253.2C1255.4,196,1292,98,1329,49C1366.2,0,1403,0,1440,0C1476.9,0,1514,0,1551,65.3C1587.7,131,1625,261,1662,261.3C1698.5,261,1735,131,1772,98C1809.2,65,1846,131,1883,171.5C1920,212,1957,229,1994,269.5C2030.8,310,2068,376,2105,392C2141.5,408,2178,376,2215,334.8C2252.3,294,2289,245,2326,204.2C2363.1,163,2400,131,2437,163.3C2473.8,196,2511,294,2548,343C2584.6,392,2622,392,2640,392L2658.5,392L2658.5,490L2640,490C2621.5,490,2585,490,2548,490C2510.8,490,2474,490,2437,490C2400,490,2363,490,2326,490C2289.2,490,2252,490,2215,490C2178.5,490,2142,490,2105,490C2067.7,490,2031,490,1994,490C1956.9,490,1920,490,1883,490C1846.2,490,1809,490,1772,490C1735.4,490,1698,490,1662,490C1624.6,490,1588,490,1551,490C1513.8,490,1477,490,1440,490C1403.1,490,1366,490,1329,490C1292.3,490,1255,490,1218,490C1181.5,490,1145,490,1108,490C1070.8,490,1034,490,997,490C960,490,923,490,886,490C849.2,490,812,490,775,490C738.5,490,702,490,665,490C627.7,490,591,490,554,490C516.9,490,480,490,443,490C406.2,490,369,490,332,490C295.4,490,258,490,222,490C184.6,490,148,490,111,490C73.8,490,37,490,18,490L0,490Z"/></svg>