<?xml version="1.0" standalone="no"?><svg xmlns="http://www.w3.org/2000/svg" viewBox="0 0 1440 320"><path fill="#ff5500" fill-opacity="1" d="M0,192L16,165.3C32,139,64,85,96,90.7C128,96,160,160,192,160C224,160,256,96,288,74.7C320,53,352,75,384,96C416,117,448,139,480,170.7C512,203,544,245,576,234.7C608,224,640,160,672,128C704,96,736,96,768,112C800,128,832,160,864,192C896,224,928,256,960,245.3C992,235,1024,181,1056,149.3C1088,117,1120,107,1152,128C1184,149,1216,203,1248,224C1280,245,1312,235,1344,224C1376,213,1408,203,1424,197.3L1440,192L1440,320L1424,320C1408,320,1376,320,1344,320C1312,320,1280,320,1248,320C1216,320,1184,320,1152,320C1120,320,1088,320,1056,320C1024,320,992,320,960,320C928,320,896,320,864,320C832,320,800,320,768,320C736,320,704,320,672,320C640,320,608,320,576,320C544,320,512,320,480,320C448,320,416,320,384,320C352,320,320,320,288,320C256,320,224,320,192,320C160,320,128,320,96,320C64,320,32,320,16,320L0,320Z"></path></svg>